<mxfile host="Electron" agent="Mozilla/5.0 (Macintosh; Intel Mac OS X 10_15_7) AppleWebKit/537.36 (KHTML, like Gecko) draw.io/28.1.2 Chrome/138.0.7204.243 Electron/37.4.0 Safari/537.36" version="28.1.2">
  <diagram name="Page-1" id="OACF1VUiEy_PiN1q0sb7">
    <mxGraphModel dx="1454" dy="1110" grid="1" gridSize="10" guides="1" tooltips="1" connect="1" arrows="1" fold="1" page="1" pageScale="1" pageWidth="850" pageHeight="1100" math="0" shadow="0">
      <root>
        <mxCell id="0" />
        <mxCell id="1" parent="0" />
        <mxCell id="3HvnrupFz709Mwgle0Mm-49" style="edgeStyle=orthogonalEdgeStyle;rounded=0;orthogonalLoop=1;jettySize=auto;html=1;" edge="1" parent="1" source="3HvnrupFz709Mwgle0Mm-9" target="3HvnrupFz709Mwgle0Mm-46">
          <mxGeometry relative="1" as="geometry" />
        </mxCell>
        <mxCell id="3HvnrupFz709Mwgle0Mm-9" value="&lt;div style=&quot;text-align: justify;&quot;&gt;&lt;br&gt;&lt;/div&gt;" style="whiteSpace=wrap;html=1;aspect=fixed;align=left;" vertex="1" parent="1">
          <mxGeometry x="190" y="70" width="390" height="390" as="geometry" />
        </mxCell>
        <mxCell id="3HvnrupFz709Mwgle0Mm-3" value="" style="group" vertex="1" connectable="0" parent="1">
          <mxGeometry x="20" y="200" width="140" height="80" as="geometry" />
        </mxCell>
        <mxCell id="3HvnrupFz709Mwgle0Mm-2" value="" style="rounded=0;whiteSpace=wrap;html=1;" vertex="1" parent="3HvnrupFz709Mwgle0Mm-3">
          <mxGeometry x="20" y="20" width="120" height="60" as="geometry" />
        </mxCell>
        <mxCell id="3HvnrupFz709Mwgle0Mm-1" value="clients" style="rounded=0;whiteSpace=wrap;html=1;" vertex="1" parent="3HvnrupFz709Mwgle0Mm-3">
          <mxGeometry width="120" height="60" as="geometry" />
        </mxCell>
        <mxCell id="3HvnrupFz709Mwgle0Mm-4" value="message broker" style="ellipse;whiteSpace=wrap;html=1;aspect=fixed;" vertex="1" parent="1">
          <mxGeometry x="290" y="100" width="190" height="190" as="geometry" />
        </mxCell>
        <mxCell id="3HvnrupFz709Mwgle0Mm-5" value="API" style="ellipse;whiteSpace=wrap;html=1;aspect=fixed;" vertex="1" parent="1">
          <mxGeometry x="345" y="350" width="80" height="80" as="geometry" />
        </mxCell>
        <mxCell id="3HvnrupFz709Mwgle0Mm-7" style="edgeStyle=orthogonalEdgeStyle;rounded=0;orthogonalLoop=1;jettySize=auto;html=1;entryX=0;entryY=0.5;entryDx=0;entryDy=0;" edge="1" parent="1" source="3HvnrupFz709Mwgle0Mm-2" target="3HvnrupFz709Mwgle0Mm-4">
          <mxGeometry relative="1" as="geometry" />
        </mxCell>
        <mxCell id="3HvnrupFz709Mwgle0Mm-8" style="edgeStyle=orthogonalEdgeStyle;rounded=0;orthogonalLoop=1;jettySize=auto;html=1;entryX=0;entryY=0.5;entryDx=0;entryDy=0;" edge="1" parent="1" source="3HvnrupFz709Mwgle0Mm-2" target="3HvnrupFz709Mwgle0Mm-5">
          <mxGeometry relative="1" as="geometry" />
        </mxCell>
        <mxCell id="3HvnrupFz709Mwgle0Mm-10" value="event bus" style="text;strokeColor=none;fillColor=none;align=left;verticalAlign=middle;spacingLeft=4;spacingRight=4;overflow=hidden;points=[[0,0.5],[1,0.5]];portConstraint=eastwest;rotatable=0;whiteSpace=wrap;html=1;" vertex="1" parent="1">
          <mxGeometry x="190" y="70" width="80" height="30" as="geometry" />
        </mxCell>
        <mxCell id="3HvnrupFz709Mwgle0Mm-40" value="" style="group" vertex="1" connectable="0" parent="1">
          <mxGeometry x="660" y="12.5" width="520" height="505" as="geometry" />
        </mxCell>
        <mxCell id="3HvnrupFz709Mwgle0Mm-11" value="" style="rounded=0;whiteSpace=wrap;html=1;" vertex="1" parent="3HvnrupFz709Mwgle0Mm-40">
          <mxGeometry width="520" height="505" as="geometry" />
        </mxCell>
        <mxCell id="3HvnrupFz709Mwgle0Mm-13" value="Notification Service" style="text;html=1;align=center;verticalAlign=middle;whiteSpace=wrap;rounded=0;container=1;" vertex="1" parent="3HvnrupFz709Mwgle0Mm-40">
          <mxGeometry x="10" y="10" width="60" height="30" as="geometry" />
        </mxCell>
        <mxCell id="3HvnrupFz709Mwgle0Mm-16" style="edgeStyle=orthogonalEdgeStyle;rounded=0;orthogonalLoop=1;jettySize=auto;html=1;entryX=0.5;entryY=0;entryDx=0;entryDy=0;" edge="1" parent="3HvnrupFz709Mwgle0Mm-40" source="3HvnrupFz709Mwgle0Mm-14" target="3HvnrupFz709Mwgle0Mm-15">
          <mxGeometry relative="1" as="geometry" />
        </mxCell>
        <mxCell id="3HvnrupFz709Mwgle0Mm-18" value="" style="edgeStyle=orthogonalEdgeStyle;rounded=0;orthogonalLoop=1;jettySize=auto;html=1;" edge="1" parent="3HvnrupFz709Mwgle0Mm-40" source="3HvnrupFz709Mwgle0Mm-14" target="3HvnrupFz709Mwgle0Mm-17">
          <mxGeometry relative="1" as="geometry" />
        </mxCell>
        <mxCell id="3HvnrupFz709Mwgle0Mm-14" value="Controller/Consumer" style="rounded=0;whiteSpace=wrap;html=1;" vertex="1" parent="3HvnrupFz709Mwgle0Mm-40">
          <mxGeometry x="20" y="70" width="120" height="60" as="geometry" />
        </mxCell>
        <mxCell id="3HvnrupFz709Mwgle0Mm-15" value="TemplateEngine" style="rounded=0;whiteSpace=wrap;html=1;" vertex="1" parent="3HvnrupFz709Mwgle0Mm-40">
          <mxGeometry x="20" y="222.5" width="120" height="60" as="geometry" />
        </mxCell>
        <mxCell id="3HvnrupFz709Mwgle0Mm-20" value="" style="edgeStyle=orthogonalEdgeStyle;rounded=0;orthogonalLoop=1;jettySize=auto;html=1;" edge="1" parent="3HvnrupFz709Mwgle0Mm-40" source="3HvnrupFz709Mwgle0Mm-17" target="3HvnrupFz709Mwgle0Mm-19">
          <mxGeometry relative="1" as="geometry" />
        </mxCell>
        <mxCell id="3HvnrupFz709Mwgle0Mm-17" value="Delivery" style="rounded=0;whiteSpace=wrap;html=1;" vertex="1" parent="3HvnrupFz709Mwgle0Mm-40">
          <mxGeometry x="200" y="70" width="120" height="60" as="geometry" />
        </mxCell>
        <mxCell id="3HvnrupFz709Mwgle0Mm-26" value="" style="edgeStyle=orthogonalEdgeStyle;rounded=0;orthogonalLoop=1;jettySize=auto;html=1;" edge="1" parent="3HvnrupFz709Mwgle0Mm-40" source="3HvnrupFz709Mwgle0Mm-19" target="3HvnrupFz709Mwgle0Mm-25">
          <mxGeometry relative="1" as="geometry" />
        </mxCell>
        <mxCell id="3HvnrupFz709Mwgle0Mm-34" style="edgeStyle=orthogonalEdgeStyle;rounded=0;orthogonalLoop=1;jettySize=auto;html=1;" edge="1" parent="3HvnrupFz709Mwgle0Mm-40" source="3HvnrupFz709Mwgle0Mm-19" target="3HvnrupFz709Mwgle0Mm-31">
          <mxGeometry relative="1" as="geometry" />
        </mxCell>
        <mxCell id="3HvnrupFz709Mwgle0Mm-39" style="edgeStyle=orthogonalEdgeStyle;rounded=0;orthogonalLoop=1;jettySize=auto;html=1;entryX=0.5;entryY=0;entryDx=0;entryDy=0;" edge="1" parent="3HvnrupFz709Mwgle0Mm-40" source="3HvnrupFz709Mwgle0Mm-19" target="3HvnrupFz709Mwgle0Mm-36">
          <mxGeometry relative="1" as="geometry" />
        </mxCell>
        <mxCell id="3HvnrupFz709Mwgle0Mm-19" value="Chanel(SMS,PUSH,EMAIL)" style="rounded=0;whiteSpace=wrap;html=1;" vertex="1" parent="3HvnrupFz709Mwgle0Mm-40">
          <mxGeometry x="210" y="222.5" width="180" height="60" as="geometry" />
        </mxCell>
        <mxCell id="3HvnrupFz709Mwgle0Mm-29" value="" style="group" vertex="1" connectable="0" parent="3HvnrupFz709Mwgle0Mm-40">
          <mxGeometry x="100" y="370" width="120" height="80" as="geometry" />
        </mxCell>
        <mxCell id="3HvnrupFz709Mwgle0Mm-25" value="Sms" style="rounded=0;whiteSpace=wrap;html=1;" vertex="1" parent="3HvnrupFz709Mwgle0Mm-29">
          <mxGeometry width="100" height="60" as="geometry" />
        </mxCell>
        <mxCell id="3HvnrupFz709Mwgle0Mm-27" value="Sms" style="rounded=0;whiteSpace=wrap;html=1;" vertex="1" parent="3HvnrupFz709Mwgle0Mm-29">
          <mxGeometry x="10" y="10" width="100" height="60" as="geometry" />
        </mxCell>
        <mxCell id="3HvnrupFz709Mwgle0Mm-28" value="Sms" style="rounded=0;whiteSpace=wrap;html=1;" vertex="1" parent="3HvnrupFz709Mwgle0Mm-29">
          <mxGeometry x="20" y="20" width="100" height="60" as="geometry" />
        </mxCell>
        <mxCell id="3HvnrupFz709Mwgle0Mm-30" value="" style="group" vertex="1" connectable="0" parent="3HvnrupFz709Mwgle0Mm-40">
          <mxGeometry x="250" y="380" width="120" height="80" as="geometry" />
        </mxCell>
        <mxCell id="3HvnrupFz709Mwgle0Mm-31" value="Sms" style="rounded=0;whiteSpace=wrap;html=1;" vertex="1" parent="3HvnrupFz709Mwgle0Mm-30">
          <mxGeometry width="100" height="60" as="geometry" />
        </mxCell>
        <mxCell id="3HvnrupFz709Mwgle0Mm-32" value="Sms" style="rounded=0;whiteSpace=wrap;html=1;" vertex="1" parent="3HvnrupFz709Mwgle0Mm-30">
          <mxGeometry x="10" y="10" width="100" height="60" as="geometry" />
        </mxCell>
        <mxCell id="3HvnrupFz709Mwgle0Mm-33" value="PUSH" style="rounded=0;whiteSpace=wrap;html=1;" vertex="1" parent="3HvnrupFz709Mwgle0Mm-30">
          <mxGeometry x="20" y="20" width="100" height="60" as="geometry" />
        </mxCell>
        <mxCell id="3HvnrupFz709Mwgle0Mm-35" value="" style="group" vertex="1" connectable="0" parent="3HvnrupFz709Mwgle0Mm-40">
          <mxGeometry x="380" y="330" width="120" height="80" as="geometry" />
        </mxCell>
        <mxCell id="3HvnrupFz709Mwgle0Mm-36" value="Sms" style="rounded=0;whiteSpace=wrap;html=1;" vertex="1" parent="3HvnrupFz709Mwgle0Mm-35">
          <mxGeometry width="100" height="60" as="geometry" />
        </mxCell>
        <mxCell id="3HvnrupFz709Mwgle0Mm-37" value="Sms" style="rounded=0;whiteSpace=wrap;html=1;" vertex="1" parent="3HvnrupFz709Mwgle0Mm-35">
          <mxGeometry x="10" y="10" width="100" height="60" as="geometry" />
        </mxCell>
        <mxCell id="3HvnrupFz709Mwgle0Mm-38" value="email" style="rounded=0;whiteSpace=wrap;html=1;" vertex="1" parent="3HvnrupFz709Mwgle0Mm-35">
          <mxGeometry x="20" y="20" width="100" height="60" as="geometry" />
        </mxCell>
        <mxCell id="3HvnrupFz709Mwgle0Mm-41" value="" style="edgeStyle=orthogonalEdgeStyle;rounded=0;orthogonalLoop=1;jettySize=auto;html=1;" edge="1" parent="1" source="3HvnrupFz709Mwgle0Mm-11" target="3HvnrupFz709Mwgle0Mm-9">
          <mxGeometry relative="1" as="geometry" />
        </mxCell>
        <mxCell id="3HvnrupFz709Mwgle0Mm-48" value="" style="edgeStyle=orthogonalEdgeStyle;rounded=0;orthogonalLoop=1;jettySize=auto;html=1;" edge="1" parent="1" source="3HvnrupFz709Mwgle0Mm-42" target="3HvnrupFz709Mwgle0Mm-43">
          <mxGeometry relative="1" as="geometry" />
        </mxCell>
        <mxCell id="3HvnrupFz709Mwgle0Mm-42" value="db" style="shape=cylinder3;whiteSpace=wrap;html=1;boundedLbl=1;backgroundOutline=1;size=15;" vertex="1" parent="1">
          <mxGeometry x="690" y="630" width="60" height="80" as="geometry" />
        </mxCell>
        <mxCell id="3HvnrupFz709Mwgle0Mm-43" value="monitoring" style="shape=cylinder3;whiteSpace=wrap;html=1;boundedLbl=1;backgroundOutline=1;size=15;" vertex="1" parent="1">
          <mxGeometry x="840" y="630" width="60" height="80" as="geometry" />
        </mxCell>
        <mxCell id="3HvnrupFz709Mwgle0Mm-46" value="Dead letter" style="rounded=0;whiteSpace=wrap;html=1;" vertex="1" parent="1">
          <mxGeometry x="540" y="650" width="120" height="60" as="geometry" />
        </mxCell>
        <mxCell id="3HvnrupFz709Mwgle0Mm-47" value="" style="edgeStyle=orthogonalEdgeStyle;rounded=0;orthogonalLoop=1;jettySize=auto;html=1;entryX=0.5;entryY=0;entryDx=0;entryDy=0;entryPerimeter=0;" edge="1" parent="1" source="3HvnrupFz709Mwgle0Mm-11" target="3HvnrupFz709Mwgle0Mm-42">
          <mxGeometry relative="1" as="geometry" />
        </mxCell>
      </root>
    </mxGraphModel>
  </diagram>
</mxfile>
